<mxfile host="drawio-plugin" modified="2022-03-30T12:32:18.894Z" agent="5.0 (Windows NT 6.2; Win64; x64) AppleWebKit/537.36 (KHTML, like Gecko) Chrome/89.0.4389.114 Safari/537.36" etag="4tTfZtyQTZVxpECKsk7n" version="15.5.4" type="embed"><diagram id="RNO-MUVeYh6X1f2wEjuQ" name="Page-1"><mxGraphModel dx="1379" dy="743" grid="1" gridSize="10" guides="1" tooltips="1" connect="1" arrows="1" fold="1" page="1" pageScale="1" pageWidth="850" pageHeight="1100" math="0" shadow="0"><root><mxCell id="0"/><mxCell id="1" parent="0"/><mxCell id="vp8esC1iI4rONQ47Ldl6-1" value="USER" style="rounded=0;whiteSpace=wrap;html=1;" parent="1" vertex="1"><mxGeometry x="338.45" y="250" width="120" height="40" as="geometry"/></mxCell><mxCell id="vp8esC1iI4rONQ47Ldl6-2" value="SPORT" style="rounded=0;whiteSpace=wrap;html=1;" parent="1" vertex="1"><mxGeometry x="45" y="250" width="120" height="40" as="geometry"/></mxCell><mxCell id="vp8esC1iI4rONQ47Ldl6-3" value="ROUTE" style="rounded=0;whiteSpace=wrap;html=1;" parent="1" vertex="1"><mxGeometry x="630" y="250" width="120" height="40" as="geometry"/></mxCell><mxCell id="vp8esC1iI4rONQ47Ldl6-4" value="ACTIVITY" style="rounded=0;whiteSpace=wrap;html=1;" parent="1" vertex="1"><mxGeometry x="338.45" y="450" width="120" height="40" as="geometry"/></mxCell><mxCell id="vp8esC1iI4rONQ47Ldl6-5" value="&lt;u&gt;id&lt;/u&gt;" style="ellipse;whiteSpace=wrap;html=1;" parent="1" vertex="1"><mxGeometry x="268.45" y="160" width="90" height="30" as="geometry"/></mxCell><mxCell id="vp8esC1iI4rONQ47Ldl6-6" value="name" style="ellipse;whiteSpace=wrap;html=1;" parent="1" vertex="1"><mxGeometry x="248.45" y="200" width="90" height="30" as="geometry"/></mxCell><mxCell id="vp8esC1iI4rONQ47Ldl6-7" value="email" style="ellipse;whiteSpace=wrap;html=1;" parent="1" vertex="1"><mxGeometry x="438.45" y="200" width="90" height="30" as="geometry"/></mxCell><mxCell id="vp8esC1iI4rONQ47Ldl6-8" value="" style="endArrow=none;html=1;rounded=0;" parent="1" source="vp8esC1iI4rONQ47Ldl6-1" target="vp8esC1iI4rONQ47Ldl6-6" edge="1"><mxGeometry width="50" height="50" relative="1" as="geometry"><mxPoint x="388.45" y="490" as="sourcePoint"/><mxPoint x="329.99834588061407" y="228.16843359370853" as="targetPoint"/></mxGeometry></mxCell><mxCell id="vp8esC1iI4rONQ47Ldl6-9" value="" style="endArrow=none;html=1;rounded=0;" parent="1" source="vp8esC1iI4rONQ47Ldl6-1" target="vp8esC1iI4rONQ47Ldl6-5" edge="1"><mxGeometry width="50" height="50" relative="1" as="geometry"><mxPoint x="370.26818181818186" y="260" as="sourcePoint"/><mxPoint x="327.60939714869227" y="237.6549223159816" as="targetPoint"/></mxGeometry></mxCell><mxCell id="vp8esC1iI4rONQ47Ldl6-10" value="" style="endArrow=none;html=1;rounded=0;" parent="1" source="vp8esC1iI4rONQ47Ldl6-1" target="vp8esC1iI4rONQ47Ldl6-7" edge="1"><mxGeometry width="50" height="50" relative="1" as="geometry"><mxPoint x="408.45" y="260" as="sourcePoint"/><mxPoint x="408.45" y="200" as="targetPoint"/></mxGeometry></mxCell><mxCell id="vp8esC1iI4rONQ47Ldl6-11" value="&lt;u&gt;id&lt;/u&gt;" style="ellipse;whiteSpace=wrap;html=1;" parent="1" vertex="1"><mxGeometry x="60.000000000000014" y="170" width="90" height="30" as="geometry"/></mxCell><mxCell id="vp8esC1iI4rONQ47Ldl6-12" value="name" style="ellipse;whiteSpace=wrap;html=1;" parent="1" vertex="1"><mxGeometry y="200" width="90" height="30" as="geometry"/></mxCell><mxCell id="vp8esC1iI4rONQ47Ldl6-13" value="description" style="ellipse;whiteSpace=wrap;html=1;" parent="1" vertex="1"><mxGeometry x="135" y="200" width="90" height="30" as="geometry"/></mxCell><mxCell id="vp8esC1iI4rONQ47Ldl6-14" value="" style="endArrow=none;html=1;rounded=0;" parent="1" source="vp8esC1iI4rONQ47Ldl6-2" target="vp8esC1iI4rONQ47Ldl6-12" edge="1"><mxGeometry width="50" height="50" relative="1" as="geometry"><mxPoint x="82.27272727272727" y="100" as="sourcePoint"/><mxPoint x="46.54834588062738" y="78.16843359371671" as="targetPoint"/></mxGeometry></mxCell><mxCell id="vp8esC1iI4rONQ47Ldl6-15" value="" style="endArrow=none;html=1;rounded=0;" parent="1" source="vp8esC1iI4rONQ47Ldl6-2" target="vp8esC1iI4rONQ47Ldl6-11" edge="1"><mxGeometry width="50" height="50" relative="1" as="geometry"><mxPoint x="82.27272727272738" y="300" as="sourcePoint"/><mxPoint x="46.54834588062738" y="321.8315664062834" as="targetPoint"/></mxGeometry></mxCell><mxCell id="vp8esC1iI4rONQ47Ldl6-16" value="" style="endArrow=none;html=1;rounded=0;" parent="1" source="vp8esC1iI4rONQ47Ldl6-2" target="vp8esC1iI4rONQ47Ldl6-13" edge="1"><mxGeometry width="50" height="50" relative="1" as="geometry"><mxPoint x="115.00000000000001" y="300" as="sourcePoint"/><mxPoint x="173.4516541193741" y="311.8315664062842" as="targetPoint"/></mxGeometry></mxCell><mxCell id="vp8esC1iI4rONQ47Ldl6-18" value="&lt;u&gt;id&lt;/u&gt;" style="ellipse;whiteSpace=wrap;html=1;" parent="1" vertex="1"><mxGeometry x="570" y="200" width="90" height="30" as="geometry"/></mxCell><mxCell id="vp8esC1iI4rONQ47Ldl6-19" value="start_location" style="ellipse;whiteSpace=wrap;html=1;" parent="1" vertex="1"><mxGeometry x="720" y="160" width="90" height="30" as="geometry"/></mxCell><mxCell id="vp8esC1iI4rONQ47Ldl6-20" value="end_location" style="ellipse;whiteSpace=wrap;html=1;" parent="1" vertex="1"><mxGeometry x="750" y="200" width="90" height="30" as="geometry"/></mxCell><mxCell id="vp8esC1iI4rONQ47Ldl6-21" value="distance" style="ellipse;whiteSpace=wrap;html=1;" parent="1" vertex="1"><mxGeometry x="615" y="160" width="90" height="30" as="geometry"/></mxCell><mxCell id="vp8esC1iI4rONQ47Ldl6-22" value="" style="endArrow=none;html=1;rounded=0;" parent="1" source="vp8esC1iI4rONQ47Ldl6-3" target="vp8esC1iI4rONQ47Ldl6-18" edge="1"><mxGeometry width="50" height="50" relative="1" as="geometry"><mxPoint x="412.72727272727275" y="260" as="sourcePoint"/><mxPoint x="448.4516541193742" y="238.1684335937158" as="targetPoint"/></mxGeometry></mxCell><mxCell id="vp8esC1iI4rONQ47Ldl6-23" value="" style="endArrow=none;html=1;rounded=0;" parent="1" source="vp8esC1iI4rONQ47Ldl6-3" target="vp8esC1iI4rONQ47Ldl6-21" edge="1"><mxGeometry width="50" height="50" relative="1" as="geometry"><mxPoint x="690" y="260" as="sourcePoint"/><mxPoint x="651.4936033272172" y="238.95612589226062" as="targetPoint"/></mxGeometry></mxCell><mxCell id="vp8esC1iI4rONQ47Ldl6-24" value="" style="endArrow=none;html=1;rounded=0;" parent="1" source="vp8esC1iI4rONQ47Ldl6-3" target="vp8esC1iI4rONQ47Ldl6-19" edge="1"><mxGeometry width="50" height="50" relative="1" as="geometry"><mxPoint x="700" y="270" as="sourcePoint"/><mxPoint x="675.257856140533" y="199.89725906484364" as="targetPoint"/></mxGeometry></mxCell><mxCell id="vp8esC1iI4rONQ47Ldl6-25" value="" style="endArrow=none;html=1;rounded=0;" parent="1" source="vp8esC1iI4rONQ47Ldl6-3" target="vp8esC1iI4rONQ47Ldl6-20" edge="1"><mxGeometry width="50" height="50" relative="1" as="geometry"><mxPoint x="693.6842105263158" y="260" as="sourcePoint"/><mxPoint x="674.7108153033118" y="199.91758179382077" as="targetPoint"/></mxGeometry></mxCell><mxCell id="vp8esC1iI4rONQ47Ldl6-26" value="&lt;u&gt;id&lt;/u&gt;" style="ellipse;whiteSpace=wrap;html=1;" parent="1" vertex="1"><mxGeometry x="353.45" y="530" width="90" height="30" as="geometry"/></mxCell><mxCell id="vp8esC1iI4rONQ47Ldl6-27" value="date" style="ellipse;whiteSpace=wrap;html=1;" parent="1" vertex="1"><mxGeometry x="258.45" y="510" width="90" height="30" as="geometry"/></mxCell><mxCell id="vp8esC1iI4rONQ47Ldl6-28" value="duration" style="ellipse;whiteSpace=wrap;html=1;" parent="1" vertex="1"><mxGeometry x="448.45" y="510" width="90" height="30" as="geometry"/></mxCell><mxCell id="vp8esC1iI4rONQ47Ldl6-29" value="" style="endArrow=none;html=1;rounded=0;" parent="1" source="vp8esC1iI4rONQ47Ldl6-4" target="vp8esC1iI4rONQ47Ldl6-26" edge="1"><mxGeometry width="50" height="50" relative="1" as="geometry"><mxPoint x="88.44999999999999" y="500" as="sourcePoint"/><mxPoint x="88.44999999999999" y="540" as="targetPoint"/></mxGeometry></mxCell><mxCell id="vp8esC1iI4rONQ47Ldl6-30" value="" style="endArrow=none;html=1;rounded=0;" parent="1" source="vp8esC1iI4rONQ47Ldl6-4" target="vp8esC1iI4rONQ47Ldl6-27" edge="1"><mxGeometry width="50" height="50" relative="1" as="geometry"><mxPoint x="408.45" y="500" as="sourcePoint"/><mxPoint x="408.45" y="540" as="targetPoint"/></mxGeometry></mxCell><mxCell id="vp8esC1iI4rONQ47Ldl6-31" value="" style="endArrow=none;html=1;rounded=0;" parent="1" source="vp8esC1iI4rONQ47Ldl6-4" target="vp8esC1iI4rONQ47Ldl6-28" edge="1"><mxGeometry width="50" height="50" relative="1" as="geometry"><mxPoint x="370.26818181818174" y="500" as="sourcePoint"/><mxPoint x="327.6093971486934" y="522.3450776840177" as="targetPoint"/></mxGeometry></mxCell><mxCell id="vp8esC1iI4rONQ47Ldl6-32" value="CREATE" style="rhombus;whiteSpace=wrap;html=1;" parent="1" vertex="1"><mxGeometry x="215" y="230" width="80" height="80" as="geometry"/></mxCell><mxCell id="vp8esC1iI4rONQ47Ldl6-35" value="" style="endArrow=none;html=1;rounded=0;shape=link;" parent="1" source="vp8esC1iI4rONQ47Ldl6-32" target="vp8esC1iI4rONQ47Ldl6-2" edge="1"><mxGeometry width="50" height="50" relative="1" as="geometry"><mxPoint x="85.00000000000001" y="140" as="sourcePoint"/><mxPoint x="85.00000000000001" y="160" as="targetPoint"/></mxGeometry></mxCell><mxCell id="vp8esC1iI4rONQ47Ldl6-36" value="1" style="text;html=1;strokeColor=none;fillColor=none;align=center;verticalAlign=middle;whiteSpace=wrap;rounded=0;" parent="1" vertex="1"><mxGeometry x="290" y="245" width="20" height="30" as="geometry"/></mxCell><mxCell id="vp8esC1iI4rONQ47Ldl6-37" value="N" style="text;html=1;strokeColor=none;fillColor=none;align=center;verticalAlign=middle;whiteSpace=wrap;rounded=0;" parent="1" vertex="1"><mxGeometry x="195" y="245" width="20" height="30" as="geometry"/></mxCell><mxCell id="vp8esC1iI4rONQ47Ldl6-38" value="CREATE" style="rhombus;whiteSpace=wrap;html=1;" parent="1" vertex="1"><mxGeometry x="508.45" y="230" width="80" height="80" as="geometry"/></mxCell><mxCell id="vp8esC1iI4rONQ47Ldl6-39" value="" style="endArrow=none;html=1;rounded=0;" parent="1" source="vp8esC1iI4rONQ47Ldl6-1" target="vp8esC1iI4rONQ47Ldl6-38" edge="1"><mxGeometry width="50" height="50" relative="1" as="geometry"><mxPoint x="222.72727272727263" y="260" as="sourcePoint"/><mxPoint x="258.4516541193742" y="238.1684335937157" as="targetPoint"/></mxGeometry></mxCell><mxCell id="vp8esC1iI4rONQ47Ldl6-40" value="" style="endArrow=none;html=1;rounded=0;exitX=1;exitY=0.5;exitDx=0;exitDy=0;shape=link;" parent="1" source="vp8esC1iI4rONQ47Ldl6-38" target="vp8esC1iI4rONQ47Ldl6-3" edge="1"><mxGeometry width="50" height="50" relative="1" as="geometry"><mxPoint x="540" y="270" as="sourcePoint"/><mxPoint x="470" y="280" as="targetPoint"/></mxGeometry></mxCell><mxCell id="vp8esC1iI4rONQ47Ldl6-41" value="1" style="text;html=1;strokeColor=none;fillColor=none;align=center;verticalAlign=middle;whiteSpace=wrap;rounded=0;" parent="1" vertex="1"><mxGeometry x="488.45" y="250" width="20" height="20" as="geometry"/></mxCell><mxCell id="vp8esC1iI4rONQ47Ldl6-42" value="N" style="text;html=1;strokeColor=none;fillColor=none;align=center;verticalAlign=middle;whiteSpace=wrap;rounded=0;" parent="1" vertex="1"><mxGeometry x="588.45" y="250" width="20" height="20" as="geometry"/></mxCell><mxCell id="vp8esC1iI4rONQ47Ldl6-43" value="PRATICE" style="rhombus;whiteSpace=wrap;html=1;" parent="1" vertex="1"><mxGeometry x="358.45" y="325" width="80" height="80" as="geometry"/></mxCell><mxCell id="vp8esC1iI4rONQ47Ldl6-44" value="" style="endArrow=none;html=1;rounded=0;" parent="1" source="vp8esC1iI4rONQ47Ldl6-1" target="vp8esC1iI4rONQ47Ldl6-43" edge="1"><mxGeometry width="50" height="50" relative="1" as="geometry"><mxPoint x="272.72727272727263" y="260" as="sourcePoint"/><mxPoint x="308.4516541193742" y="238.1684335937157" as="targetPoint"/></mxGeometry></mxCell><mxCell id="vp8esC1iI4rONQ47Ldl6-45" value="" style="endArrow=none;html=1;rounded=0;shape=link;" parent="1" source="vp8esC1iI4rONQ47Ldl6-43" target="vp8esC1iI4rONQ47Ldl6-4" edge="1"><mxGeometry width="50" height="50" relative="1" as="geometry"><mxPoint x="274" y="300" as="sourcePoint"/><mxPoint x="384.8148148148148" y="365.1851851851852" as="targetPoint"/></mxGeometry></mxCell><mxCell id="vp8esC1iI4rONQ47Ldl6-46" value="1" style="text;html=1;strokeColor=none;fillColor=none;align=center;verticalAlign=middle;whiteSpace=wrap;rounded=0;" parent="1" vertex="1"><mxGeometry x="400" y="310" width="20" height="20" as="geometry"/></mxCell><mxCell id="vp8esC1iI4rONQ47Ldl6-47" value="N" style="text;html=1;strokeColor=none;fillColor=none;align=center;verticalAlign=middle;whiteSpace=wrap;rounded=0;" parent="1" vertex="1"><mxGeometry x="400" y="400" width="20" height="20" as="geometry"/></mxCell><mxCell id="vp8esC1iI4rONQ47Ldl6-48" value="" style="endArrow=none;html=1;rounded=0;" parent="1" source="vp8esC1iI4rONQ47Ldl6-1" target="vp8esC1iI4rONQ47Ldl6-32" edge="1"><mxGeometry width="50" height="50" relative="1" as="geometry"><mxPoint x="205" y="280" as="sourcePoint"/><mxPoint x="145" y="280" as="targetPoint"/></mxGeometry></mxCell><mxCell id="vp8esC1iI4rONQ47Ldl6-49" value="HAS" style="rhombus;whiteSpace=wrap;html=1;" parent="1" vertex="1"><mxGeometry x="65" y="430" width="80" height="80" as="geometry"/></mxCell><mxCell id="vp8esC1iI4rONQ47Ldl6-50" value="" style="endArrow=none;html=1;rounded=0;strokeColor=default;" parent="1" source="vp8esC1iI4rONQ47Ldl6-49" target="vp8esC1iI4rONQ47Ldl6-2" edge="1"><mxGeometry width="50" height="50" relative="1" as="geometry"><mxPoint x="115" y="260" as="sourcePoint"/><mxPoint x="115" y="210" as="targetPoint"/></mxGeometry></mxCell><mxCell id="vp8esC1iI4rONQ47Ldl6-51" value="" style="endArrow=none;html=1;rounded=0;shape=link;" parent="1" source="vp8esC1iI4rONQ47Ldl6-49" target="vp8esC1iI4rONQ47Ldl6-4" edge="1"><mxGeometry width="50" height="50" relative="1" as="geometry"><mxPoint x="85" y="440" as="sourcePoint"/><mxPoint x="85" y="300" as="targetPoint"/></mxGeometry></mxCell><mxCell id="vp8esC1iI4rONQ47Ldl6-52" value="1" style="text;html=1;strokeColor=none;fillColor=none;align=center;verticalAlign=middle;whiteSpace=wrap;rounded=0;" parent="1" vertex="1"><mxGeometry x="100" y="410" width="20" height="25" as="geometry"/></mxCell><mxCell id="vp8esC1iI4rONQ47Ldl6-53" value="N" style="text;html=1;strokeColor=none;fillColor=none;align=center;verticalAlign=middle;whiteSpace=wrap;rounded=0;" parent="1" vertex="1"><mxGeometry x="145" y="450" width="20" height="20" as="geometry"/></mxCell><mxCell id="vp8esC1iI4rONQ47Ldl6-54" value="HAS" style="rhombus;whiteSpace=wrap;html=1;" parent="1" vertex="1"><mxGeometry x="650" y="430" width="80" height="80" as="geometry"/></mxCell><mxCell id="vp8esC1iI4rONQ47Ldl6-55" value="" style="endArrow=none;html=1;rounded=0;" parent="1" source="vp8esC1iI4rONQ47Ldl6-4" target="vp8esC1iI4rONQ47Ldl6-54" edge="1"><mxGeometry width="50" height="50" relative="1" as="geometry"><mxPoint x="75" y="480" as="sourcePoint"/><mxPoint x="298.4499999999998" y="480" as="targetPoint"/></mxGeometry></mxCell><mxCell id="vp8esC1iI4rONQ47Ldl6-56" value="" style="endArrow=none;html=1;rounded=0;" parent="1" source="vp8esC1iI4rONQ47Ldl6-54" target="vp8esC1iI4rONQ47Ldl6-3" edge="1"><mxGeometry width="50" height="50" relative="1" as="geometry"><mxPoint x="418.4499999999998" y="480" as="sourcePoint"/><mxPoint x="660" y="480" as="targetPoint"/></mxGeometry></mxCell><mxCell id="vp8esC1iI4rONQ47Ldl6-57" value="1" style="text;html=1;strokeColor=none;fillColor=none;align=center;verticalAlign=middle;whiteSpace=wrap;rounded=0;" parent="1" vertex="1"><mxGeometry x="690" y="410" width="20" height="25" as="geometry"/></mxCell><mxCell id="vp8esC1iI4rONQ47Ldl6-58" value="N" style="text;html=1;strokeColor=none;fillColor=none;align=center;verticalAlign=middle;whiteSpace=wrap;rounded=0;" parent="1" vertex="1"><mxGeometry x="630" y="450" width="20" height="20" as="geometry"/></mxCell><mxCell id="2" value="HAS" style="rhombus;whiteSpace=wrap;html=1;" vertex="1" parent="1"><mxGeometry x="358.45" y="120" width="80" height="80" as="geometry"/></mxCell><mxCell id="3" value="TOKEN" style="rounded=0;whiteSpace=wrap;html=1;" vertex="1" parent="1"><mxGeometry x="338.45" y="40" width="120" height="40" as="geometry"/></mxCell><mxCell id="4" value="" style="endArrow=none;html=1;rounded=0;" edge="1" parent="1" source="2" target="vp8esC1iI4rONQ47Ldl6-1"><mxGeometry width="50" height="50" relative="1" as="geometry"><mxPoint x="468.45000000000005" y="280" as="sourcePoint"/><mxPoint x="518.45" y="280" as="targetPoint"/></mxGeometry></mxCell><mxCell id="5" value="" style="endArrow=none;html=1;rounded=0;shape=link;" edge="1" parent="1" source="2" target="3"><mxGeometry width="50" height="50" relative="1" as="geometry"><mxPoint x="408.45000000000005" y="210" as="sourcePoint"/><mxPoint x="408.45000000000005" y="260" as="targetPoint"/></mxGeometry></mxCell><mxCell id="6" value="1" style="text;html=1;strokeColor=none;fillColor=none;align=center;verticalAlign=middle;whiteSpace=wrap;rounded=0;" vertex="1" parent="1"><mxGeometry x="400" y="200" width="20" height="20" as="geometry"/></mxCell><mxCell id="7" value="N" style="text;html=1;strokeColor=none;fillColor=none;align=center;verticalAlign=middle;whiteSpace=wrap;rounded=0;" vertex="1" parent="1"><mxGeometry x="400" y="100" width="20" height="20" as="geometry"/></mxCell><mxCell id="8" value="&lt;u&gt;token&lt;/u&gt;" style="ellipse;whiteSpace=wrap;html=1;" vertex="1" parent="1"><mxGeometry x="488.45" y="45" width="90" height="30" as="geometry"/></mxCell><mxCell id="9" value="" style="endArrow=none;html=1;rounded=0;" edge="1" parent="1" source="3" target="8"><mxGeometry width="50" height="50" relative="1" as="geometry"><mxPoint x="390.55526315789484" y="260" as="sourcePoint"/><mxPoint x="336.3112304735214" y="199.37431641158264" as="targetPoint"/></mxGeometry></mxCell></root></mxGraphModel></diagram></mxfile>